<svg width="29" height="89" viewBox="0 0 29 89" fill="none" xmlns="http://www.w3.org/2000/svg">
<path d="M14.1151 42.0399L25.0368 52.2836L28.2463 49.269L14.1151 35.9956L0 49.269L3.20946 52.2836L14.1151 42.0399Z" fill="#C4A000"/>
<path d="M14.1151 59.9327L25.0368 70.1764L28.2463 67.1618L14.1151 53.8884L0 67.1618L3.20946 70.1764L14.1151 59.9327Z" fill="#C4A000"/>
<path d="M14.1151 78.0354L25.0368 88.2941L28.2463 85.2644L14.1151 72.0061L0 85.2644L3.20946 88.2941L14.1151 78.0354Z" fill="#C4A000"/>
<path d="M14.1151 6.04429L25.0368 16.288L28.2463 13.2734L14.1151 0L0 13.2734L3.20946 16.288L14.1151 6.04429Z" fill="#C4A000"/>
<path d="M14.1151 23.9371L25.0368 34.1808L28.2463 31.1662L14.1151 17.8928L0 31.1662L3.20946 34.1808L14.1151 23.9371Z" fill="#C4A000"/>
</svg>
