<svg width="25" height="24" viewBox="0 0 25 24" fill="none" xmlns="http://www.w3.org/2000/svg">
<path d="M10.5 15L10.5 12" stroke="black" stroke-width="2" stroke-linecap="round"/>
<path d="M14.5 15L14.5 12" stroke="black" stroke-width="2" stroke-linecap="round"/>
<path d="M3.5 7H21.5V7C20.5681 7 20.1022 7 19.7346 7.15224C19.2446 7.35523 18.8552 7.74458 18.6522 8.23463C18.5 8.60218 18.5 9.06812 18.5 10V16C18.5 17.8856 18.5 18.8284 17.9142 19.4142C17.3284 20 16.3856 20 14.5 20H10.5C8.61438 20 7.67157 20 7.08579 19.4142C6.5 18.8284 6.5 17.8856 6.5 16V10C6.5 9.06812 6.5 8.60218 6.34776 8.23463C6.14477 7.74458 5.75542 7.35523 5.26537 7.15224C4.89782 7 4.43188 7 3.5 7V7Z" stroke="black" stroke-width="2" stroke-linecap="round"/>
<path d="M10.5681 3.37059C10.6821 3.26427 10.9332 3.17033 11.2825 3.10332C11.6318 3.03632 12.0597 3 12.5 3C12.9403 3 13.3682 3.03632 13.7175 3.10332C14.0668 3.17033 14.3179 3.26427 14.4319 3.37059" stroke="black" stroke-width="2" stroke-linecap="round"/>
</svg>
