<svg width="24" height="24" viewBox="0 0 24 24" fill="none" xmlns="http://www.w3.org/2000/svg">
<path d="M19.0711 4.92893C17.6725 3.53041 15.8907 2.578 13.9509 2.19215C12.0111 1.8063 10.0004 2.00433 8.17317 2.7612C6.3459 3.51808 4.78412 4.79981 3.6853 6.4443C2.58649 8.08879 2 10.0222 2 12C2 13.9778 2.58649 15.9112 3.6853 17.5557C4.78412 19.2002 6.3459 20.4819 8.17316 21.2388C10.0004 21.9957 12.0111 22.1937 13.9509 21.8079C15.8907 21.422 17.6725 20.4696 19.0711 19.0711" stroke="black"/>
<path d="M9 12L8.60957 12.3123L8.35969 12L8.60957 11.6877L9 12ZM21 11.5C21.2761 11.5 21.5 11.7239 21.5 12C21.5 12.2761 21.2761 12.5 21 12.5V11.5ZM12.6096 17.3123L8.60957 12.3123L9.39043 11.6877L13.3904 16.6877L12.6096 17.3123ZM8.60957 11.6877L12.6096 6.68765L13.3904 7.31235L9.39043 12.3123L8.60957 11.6877ZM9 11.5L21 11.5V12.5L9 12.5V11.5Z" fill="black"/>
</svg>
