<svg width="54" height="54" viewBox="0 0 54 54" fill="none" xmlns="http://www.w3.org/2000/svg">
<path d="M12.8571 0C5.77114 0 0 5.77114 0 12.8571V41.1429C0 48.2289 5.77114 54 12.8571 54H41.1429C48.2289 54 54 48.2289 54 41.1429V12.8571C54 5.77114 48.2289 0 41.1429 0H12.8571ZM12.8571 2.57143H41.1429C46.8394 2.57143 51.4286 7.16057 51.4286 12.8571V41.1429C51.4286 46.8394 46.8394 51.4286 41.1429 51.4286H12.8571C7.16057 51.4286 2.57143 46.8394 2.57143 41.1429V12.8571C2.57143 7.16057 7.16057 2.57143 12.8571 2.57143ZM32.8184 8.99749V16.7243H35.8569C38.1686 16.7243 39.478 15.3179 39.478 12.8094C39.478 10.391 38.1519 8.99749 35.8569 8.99749H32.8184ZM14.4894 9.00502L16.5335 16.7243H18.0603L19.5042 11.6141H19.5871L21.046 16.7243H22.5628L24.6119 9.00502H22.942L21.7492 14.4467H21.6638L20.2299 9.00502H18.8664L17.4576 14.4467H17.3747L16.1694 9.00502H14.4894ZM26.0081 9.00502V16.7243H31.1208V15.3457H27.6228V13.4674H30.9249V12.1867H27.6228V10.3836H31.1208V9.00502H26.0081ZM34.433 10.3811H35.5982C36.9996 10.3811 37.8306 11.2724 37.8306 12.8345C37.8306 14.4674 37.0266 15.3457 35.5982 15.3457H34.433V10.3811ZM16.5636 20.6166C12.3748 20.6166 9.34152 23.4948 9.34152 27.4947V27.5098H12.0611V27.4947C12.0611 24.8371 13.8436 23.07 16.4858 23.07C18.9711 23.07 20.8954 24.8065 20.8954 27.0578C20.8954 28.8719 20.1926 30.0888 17.2843 33.2478L9.48214 41.7706V43.7093H24.0845V41.1755H13.5151V40.9269L18.9417 35.096C22.6471 31.1244 23.7104 29.2949 23.7104 26.9498C23.7104 23.3703 20.6136 20.6166 16.5636 20.6166ZM36.5273 20.6166C32.3063 20.6166 29.3203 23.1182 29.3203 26.6359C29.3203 29.0916 30.7882 31.0459 33.0871 31.6708V31.9219C30.2572 32.4529 28.3987 34.7358 28.3987 37.6749C28.3987 41.5372 31.742 44.2416 36.5248 44.2416C41.309 44.2416 44.656 41.5372 44.656 37.6749C44.656 34.7358 42.7975 32.4542 39.9676 31.9219V31.6708C42.2973 31.0292 43.7344 29.107 43.7344 26.6359C43.7344 23.1182 40.7483 20.6166 36.5273 20.6166ZM36.5273 23.0248C39.2016 23.0248 40.9696 24.5724 40.9696 26.9021C40.9696 29.2009 39.1849 30.7316 36.5273 30.7316C33.8698 30.7316 32.0876 29.2009 32.0876 26.9021C32.0876 24.5724 33.8531 23.0248 36.5273 23.0248ZM36.5273 33.1097C39.6542 33.1097 41.8133 34.8924 41.8133 37.4715C41.8133 40.052 39.6542 41.8334 36.5273 41.8334C33.3992 41.8334 31.2439 40.052 31.2439 37.4715C31.2439 34.8911 33.3992 33.1097 36.5273 33.1097Z" fill="#33363F"/>
</svg>
