<svg width="25" height="24" viewBox="0 0 25 24" fill="none" xmlns="http://www.w3.org/2000/svg">
<path d="M12.5 21C14.5822 21 16.6 20.278 18.2095 18.9571C19.8191 17.6362 20.9209 15.798 21.3271 13.7558C21.7333 11.7136 21.4188 9.59376 20.4373 7.75743C19.4558 5.9211 17.8679 4.48191 15.9442 3.68508C14.0205 2.88826 11.88 2.78311 9.88744 3.38754C7.8949 3.99197 6.17358 5.26858 5.01677 6.99987C3.85997 8.73115 3.33925 10.81 3.54334 12.8822C3.74743 14.9543 4.6637 16.8916 6.13604 18.364" stroke="black" stroke-width="2" stroke-linecap="round"/>
<path d="M16.5 10L12.902 14.3175C12.2465 15.1042 11.9187 15.4976 11.4781 15.5176C11.0375 15.5375 10.6755 15.1755 9.95139 14.4514L8.5 13" stroke="black" stroke-width="2" stroke-linecap="round"/>
</svg>
