<svg width="52" height="16" viewBox="0 0 52 16" fill="none" xmlns="http://www.w3.org/2000/svg">
<path d="M27.2408 7.80833L21.2079 13.8501L22.9833 15.6256L30.8005 7.80833L22.9833 0L21.2079 1.77544L27.2408 7.80833Z" fill="black"/>
<path d="M16.703 7.80833L10.6701 13.8501L12.4455 15.6256L20.2627 7.80833L12.4455 0L10.6701 1.77544L16.703 7.80833Z" fill="black"/>
<path d="M6.04165 7.80833L-0.000107765 13.8501L1.78417 15.6256L9.59253 7.80833L1.78417 0L-0.000107765 1.77544L6.04165 7.80833Z" fill="black"/>
<path d="M48.44 7.80833L42.4071 13.8501L44.1826 15.6256L51.9998 7.80833L44.1826 0L42.4071 1.77544L48.44 7.80833Z" fill="black"/>
<path d="M37.9022 7.80833L31.8693 13.8501L33.6447 15.6256L41.4619 7.80833L33.6447 0L31.8693 1.77544L37.9022 7.80833Z" fill="black"/>
</svg>
