<svg width="192" height="861" viewBox="0 0 192 861" fill="none" xmlns="http://www.w3.org/2000/svg">
<path d="M5 -119.202C18.7478 -31.6353 46.5698 105.653 134.397 35.8092C246.163 -53.0719 216.883 -270.269 303.148 -173.805" stroke="white" stroke-width="8.2894"/>
<path d="M25.287 -94.7577C39.0347 -7.19109 66.8567 130.097 154.684 60.2534C266.45 -28.6277 237.17 -245.825 323.435 -149.36" stroke="white" stroke-width="8.2894"/>
<path d="M43.967 -69.1524C57.7148 18.4142 85.5368 155.702 173.364 85.8587C285.13 -3.02239 255.85 -220.22 342.115 -123.755" stroke="white" stroke-width="8.2894"/>
<path d="M60.5862 -42.2604C74.3339 45.3062 102.156 182.594 189.983 112.751C301.749 23.8696 272.469 -193.328 358.734 -96.8631" stroke="white" stroke-width="8.2894"/>
<path d="M74.6055 -14.0268C88.3532 73.5398 116.175 210.828 204.002 140.984C315.768 52.1032 286.489 -165.094 372.753 -68.6295" stroke="white" stroke-width="8.2894"/>
<path d="M85.481 15.4655C99.2287 103.032 127.051 240.32 214.878 170.477C326.644 81.5955 297.364 -135.602 383.629 -39.1372" stroke="white" stroke-width="8.2894"/>
<path d="M92.8284 45.9528C106.576 133.519 134.398 270.808 222.225 200.964C333.991 112.083 304.712 -105.115 390.976 -8.64991" stroke="white" stroke-width="8.2894"/>
<path d="M96.6138 77.0382C110.362 164.605 138.184 301.893 226.011 232.049C337.777 143.168 308.497 -74.0292 394.762 22.4355" stroke="white" stroke-width="8.2894"/>
<path d="M97.2131 108.331C110.961 195.898 138.783 333.186 226.61 263.342C338.376 174.461 309.096 -42.7364 395.361 53.7283" stroke="white" stroke-width="8.2894"/>
<path d="M95.2883 139.574C109.036 227.141 136.858 364.429 224.685 294.585C336.451 205.704 307.172 -11.493 393.436 84.9717" stroke="white" stroke-width="8.2894"/>
<path d="M91.5852 170.669C105.333 258.235 133.155 395.524 220.982 325.68C332.748 236.799 303.468 19.6015 389.733 116.066" stroke="white" stroke-width="8.2894"/>
<path d="M86.7881 201.625C100.536 289.191 128.358 426.479 216.185 356.636C327.951 267.755 298.671 50.5571 384.936 147.022" stroke="white" stroke-width="8.2894"/>
<path d="M81.4619 232.499C95.2097 320.065 123.032 457.354 210.859 387.51C322.625 298.629 293.345 81.4314 379.61 177.896" stroke="white" stroke-width="8.2894"/>
<path d="M76.0461 263.36C89.7939 350.926 117.616 488.214 205.443 418.371C317.209 329.49 287.929 112.292 374.194 208.757" stroke="white" stroke-width="8.2894"/>
<path d="M70.8726 294.258C84.6203 381.825 112.442 519.113 200.269 449.269C312.035 360.388 282.756 143.191 369.02 239.655" stroke="white" stroke-width="8.2894"/>
<path d="M66.1841 325.229C79.9318 412.796 107.754 550.084 195.581 480.24C307.347 391.359 278.067 174.162 364.332 270.627" stroke="white" stroke-width="8.2894"/>
<path d="M62.1536 356.286C75.9013 443.852 103.723 581.14 191.55 511.297C303.316 422.415 274.037 205.218 360.301 301.683" stroke="white" stroke-width="8.2894"/>
<path d="M58.8982 387.426C72.6459 474.993 100.468 612.281 188.295 542.437C300.061 453.556 270.781 236.359 357.046 332.824" stroke="white" stroke-width="8.2894"/>
<path d="M56.4612 418.832C70.2089 506.399 98.0309 643.687 185.858 573.843C297.624 484.962 268.344 267.765 354.609 364.229" stroke="white" stroke-width="8.2894"/>
<path d="M54.5859 450.078C68.3337 537.645 96.1557 674.933 183.983 605.089C295.749 516.208 266.469 299.011 352.734 395.475" stroke="white" stroke-width="8.2894"/>
<path d="M53.1792 481.347C66.9269 568.914 94.749 706.202 182.576 636.358C294.342 547.477 265.062 330.28 351.327 426.745" stroke="white" stroke-width="8.2894"/>
<path d="M52.3049 512.634C66.0527 600.201 93.8747 737.489 181.702 667.645C293.468 578.764 264.188 361.567 350.453 458.032" stroke="white" stroke-width="8.2894"/>
<path d="M52.0444 543.931C65.7922 631.498 93.6142 768.786 181.441 698.943C293.207 610.061 263.928 392.864 350.192 489.329" stroke="white" stroke-width="8.2894"/>
<path d="M52.5002 575.227C66.248 662.793 94.07 800.082 181.897 730.238C293.663 641.357 264.384 424.159 350.648 520.624" stroke="white" stroke-width="8.2894"/>
<path d="M53.8076 606.501C67.5554 694.067 95.3774 831.355 183.204 761.512C294.97 672.631 265.691 455.433 351.955 551.898" stroke="white" stroke-width="8.2894"/>
<path d="M56.1497 637.718C69.8974 725.284 97.7194 862.572 185.546 792.729C297.312 703.848 268.033 486.65 354.297 583.115" stroke="white" stroke-width="8.2894"/>
<path d="M59.783 668.819C73.5307 756.386 101.353 893.674 189.18 823.831C300.946 734.949 271.666 517.752 357.931 614.217" stroke="white" stroke-width="8.2894"/>
<path d="M65.0789 699.701C78.8266 787.268 106.649 924.556 194.476 854.712C306.242 765.831 276.962 548.634 363.227 645.098" stroke="white" stroke-width="8.2894"/>
<path d="M72.5664 730.148C86.3142 817.715 114.136 955.003 201.963 885.159C313.729 796.278 284.45 579.081 370.714 675.546" stroke="white" stroke-width="8.2894"/>
<path d="M82.5537 759.704C96.3015 847.27 124.123 984.558 211.95 914.715C323.717 825.834 294.437 608.636 380.701 705.101" stroke="white" stroke-width="8.2894"/>
</svg>
