<svg width="114" height="65" viewBox="0 0 114 65" fill="none" xmlns="http://www.w3.org/2000/svg">
<path d="M108.191 -1.22786e-05V11.1184M102.632 5.5592L113.75 5.5592L102.632 5.5592Z" stroke="#8BD2BD" stroke-miterlimit="10"/>
<path d="M108.191 27.3684V38.4868M102.632 32.9276H113.75H102.632Z" stroke="#8BD2BD" stroke-miterlimit="10"/>
<path d="M108.191 53.8816V65M102.632 59.4408H113.75H102.632Z" stroke="#8BD2BD" stroke-miterlimit="10"/>
<path d="M108.191 -1.22786e-05V11.1184M102.632 5.5592L113.75 5.5592L102.632 5.5592Z" stroke="black" stroke-width="2" stroke-miterlimit="10"/>
<path d="M108.191 27.3684V38.4868M102.632 32.9276H113.75H102.632Z" stroke="black" stroke-width="2" stroke-miterlimit="10"/>
<path d="M108.191 53.8816V65M102.632 59.4408H113.75H102.632Z" stroke="black" stroke-width="2" stroke-miterlimit="10"/>
<path d="M82.5333 -1.22786e-05V11.1184M76.9741 5.5592L88.0925 5.5592L76.9741 5.5592Z" stroke="#8BD2BD" stroke-miterlimit="10"/>
<path d="M82.5333 27.3684V38.4868M76.9741 32.9276H88.0925H76.9741Z" stroke="#8BD2BD" stroke-miterlimit="10"/>
<path d="M82.5333 53.8816V65M76.9741 59.4408H88.0925H76.9741Z" stroke="#8BD2BD" stroke-miterlimit="10"/>
<path d="M82.5333 -1.22786e-05V11.1184M76.9741 5.5592L88.0925 5.5592L76.9741 5.5592Z" stroke="black" stroke-width="2" stroke-miterlimit="10"/>
<path d="M82.5333 27.3684V38.4868M76.9741 32.9276H88.0925H76.9741Z" stroke="black" stroke-width="2" stroke-miterlimit="10"/>
<path d="M82.5333 53.8816V65M76.9741 59.4408H88.0925H76.9741Z" stroke="black" stroke-width="2" stroke-miterlimit="10"/>
<path d="M56.8749 27.3684V38.4868M51.3157 32.9276H62.4341H51.3157Z" stroke="#8BD2BD" stroke-miterlimit="10"/>
<path d="M56.8749 53.8816V65M51.3157 59.4408H62.4341H51.3157Z" stroke="#8BD2BD" stroke-miterlimit="10"/>
<path d="M56.8749 27.3684V38.4868M51.3157 32.9276H62.4341H51.3157Z" stroke="black" stroke-width="2" stroke-miterlimit="10"/>
<path d="M56.8749 53.8816V65M51.3157 59.4408H62.4341H51.3157Z" stroke="black" stroke-width="2" stroke-miterlimit="10"/>
<path d="M31.2172 27.3684V38.4868M25.6579 32.9276H36.7764H25.6579Z" stroke="#8BD2BD" stroke-miterlimit="10"/>
<path d="M31.2172 53.8816V65M25.6579 59.4408H36.7764H25.6579Z" stroke="#8BD2BD" stroke-miterlimit="10"/>
<path d="M31.2172 27.3684V38.4868M25.6579 32.9276H36.7764H25.6579Z" stroke="black" stroke-width="2" stroke-miterlimit="10"/>
<path d="M31.2172 53.8816V65M25.6579 59.4408H36.7764H25.6579Z" stroke="black" stroke-width="2" stroke-miterlimit="10"/>
<path d="M5.5592 27.3684L5.5592 38.4868M-1.22786e-05 32.9276H11.1184H-1.22786e-05Z" stroke="#8BD2BD" stroke-miterlimit="10"/>
<path d="M5.5592 53.8816L5.5592 65M-1.22786e-05 59.4408H11.1184H-1.22786e-05Z" stroke="#8BD2BD" stroke-miterlimit="10"/>
<path d="M5.5592 27.3684L5.5592 38.4868M-1.22786e-05 32.9276H11.1184H-1.22786e-05Z" stroke="black" stroke-width="2" stroke-miterlimit="10"/>
<path d="M5.5592 53.8816L5.5592 65M-1.22786e-05 59.4408H11.1184H-1.22786e-05Z" stroke="black" stroke-width="2" stroke-miterlimit="10"/>
</svg>
