<svg width="40" height="40" viewBox="0 0 40 40" fill="none" xmlns="http://www.w3.org/2000/svg">
<rect x="3.33325" y="5" width="33.3333" height="15" rx="2" stroke="black" stroke-width="2.5"/>
<path d="M26.6666 29.9999V29.9999C26.6666 31.2461 26.6666 31.8691 26.3986 32.3333C26.2231 32.6373 25.9706 32.8898 25.6666 33.0653C25.2025 33.3333 24.5794 33.3333 23.3333 33.3333H16.6666C15.4204 33.3333 14.7974 33.3333 14.3333 33.0653C14.0292 32.8898 13.7767 32.6373 13.6012 32.3333C13.3333 31.8691 13.3333 31.2461 13.3333 29.9999V29.9999" stroke="black" stroke-width="2.5"/>
<path d="M31.6666 23.3334V23.3334C31.6666 24.5796 31.6666 25.2026 31.3986 25.6667C31.2231 25.9708 30.9706 26.2233 30.6666 26.3988C30.2025 26.6667 29.5794 26.6667 28.3333 26.6667H11.6666C10.4204 26.6667 9.79735 26.6667 9.33325 26.3988C9.02921 26.2233 8.77674 25.9708 8.6012 25.6667C8.33325 25.2026 8.33325 24.5796 8.33325 23.3334V23.3334" stroke="black" stroke-width="2.5"/>
</svg>
