<svg width="64" height="64" viewBox="0 0 64 64" fill="none" xmlns="http://www.w3.org/2000/svg">
<path d="M6.66675 9.86668C6.66675 8.74657 6.66675 8.18651 6.88474 7.75869C7.07648 7.38237 7.38244 7.07641 7.75877 6.88466C8.18659 6.66667 8.74664 6.66667 9.86675 6.66667H54.1334C55.2535 6.66667 55.8136 6.66667 56.2414 6.88466C56.6177 7.07641 56.9237 7.38237 57.1154 7.75869C57.3334 8.18651 57.3334 8.74657 57.3334 9.86667V54.1333C57.3334 55.2534 57.3334 55.8135 57.1154 56.2413C56.9237 56.6176 56.6177 56.9236 56.2414 57.1154C55.8136 57.3333 55.2535 57.3333 54.1334 57.3333H9.86675C8.74664 57.3333 8.18659 57.3333 7.75877 57.1154C7.38244 56.9236 7.07648 56.6176 6.88474 56.2413C6.66675 55.8135 6.66675 55.2534 6.66675 54.1333V9.86668Z" stroke="#33363F" stroke-width="2.5" stroke-linecap="round"/>
<path d="M33.3334 40.0784C33.3334 46.4855 26.2629 50.7707 24.4299 51.774C24.1594 51.922 23.8407 51.922 23.5703 51.774C21.7373 50.7707 14.6667 46.4855 14.6667 40.0784C14.6667 34.4314 19.1891 30.6667 24.0001 30.6667C28.9779 30.6667 33.3334 34.4314 33.3334 40.0784Z" stroke="#222222" stroke-width="2.5"/>
<path d="M49.3333 57.3333L33.3333 17.3333" stroke="#33363F" stroke-width="2.5"/>
<path d="M57.3334 12L6.66675 22.6667" stroke="#33363F" stroke-width="2.5"/>
<circle cx="23.9999" cy="40" r="2.66667" fill="#222222"/>
</svg>
