<svg width="78" height="78" viewBox="0 0 78 78" fill="none" xmlns="http://www.w3.org/2000/svg">
<path d="M74.9921 6.01495C73.3347 6.01495 71.9843 4.66465 71.9843 3.00747C71.9843 1.35029 73.3347 0 74.9921 0C76.6495 0 78 1.35029 78 3.00747C78 4.66465 76.6598 6.01495 74.9921 6.01495ZM78 21.0012C78 19.344 76.6495 17.9937 74.9921 17.9937C73.3347 17.9937 71.9843 19.344 71.9843 21.0012C71.9843 22.6584 73.3347 24.0086 74.9921 24.0086C76.6598 24.0086 78 22.6686 78 21.0012ZM78 38.9949C78 37.3377 76.6495 35.9874 74.9921 35.9874C73.3347 35.9874 71.9843 37.3377 71.9843 38.9949C71.9843 40.6521 73.3347 42.0024 74.9921 42.0024C76.6598 42.0024 78 40.6623 78 38.9949ZM78 56.9886C78 55.3314 76.6495 53.9811 74.9921 53.9811C73.3347 53.9811 71.9843 55.3314 71.9843 56.9886C71.9843 58.6458 73.3347 59.9961 74.9921 59.9961C76.6598 60.0063 78 58.656 78 56.9886ZM78 74.9925C78 73.3354 76.6495 71.9851 74.9921 71.9851C73.3347 71.9851 71.9843 73.3354 71.9843 74.9925C71.9843 76.6497 73.3347 78 74.9921 78C76.6598 78 78 76.6497 78 74.9925ZM60.0039 3.00747C60.0039 1.35029 58.6535 0 56.9961 0C55.3387 0 53.9882 1.35029 53.9882 3.00747C53.9882 4.66465 55.3387 6.01495 56.9961 6.01495C58.6637 6.01495 60.0039 4.66465 60.0039 3.00747ZM60.0039 21.0012C60.0039 19.344 58.6535 17.9937 56.9961 17.9937C55.3387 17.9937 53.9882 19.344 53.9882 21.0012C53.9882 22.6584 55.3387 24.0086 56.9961 24.0086C58.6637 24.0086 60.0039 22.6686 60.0039 21.0012ZM60.0039 38.9949C60.0039 37.3377 58.6535 35.9874 56.9961 35.9874C55.3387 35.9874 53.9882 37.3377 53.9882 38.9949C53.9882 40.6521 55.3387 42.0024 56.9961 42.0024C58.6637 42.0024 60.0039 40.6623 60.0039 38.9949ZM60.0039 56.9886C60.0039 55.3314 58.6535 53.9811 56.9961 53.9811C55.3387 53.9811 53.9882 55.3314 53.9882 56.9886C53.9882 58.6458 55.3387 59.9961 56.9961 59.9961C58.6637 60.0063 60.0039 58.656 60.0039 56.9886ZM60.0039 74.9925C60.0039 73.3354 58.6535 71.9851 56.9961 71.9851C55.3387 71.9851 53.9882 73.3354 53.9882 74.9925C53.9882 76.6497 55.3387 78 56.9961 78C58.6637 78 60.0039 76.6497 60.0039 74.9925ZM42.0079 3.00747C42.0079 1.35029 40.6574 0 39 0C37.3426 0 35.9921 1.35029 35.9921 3.00747C35.9921 4.66465 37.3426 6.01495 39 6.01495C40.6574 6.01495 42.0079 4.66465 42.0079 3.00747ZM42.0079 21.0012C42.0079 19.344 40.6574 17.9937 39 17.9937C37.3426 17.9937 35.9921 19.344 35.9921 21.0012C35.9921 22.6584 37.3426 24.0086 39 24.0086C40.6574 24.0086 42.0079 22.6686 42.0079 21.0012ZM42.0079 38.9949C42.0079 37.3377 40.6574 35.9874 39 35.9874C37.3426 35.9874 35.9921 37.3377 35.9921 38.9949C35.9921 40.6521 37.3426 42.0024 39 42.0024C40.6574 42.0024 42.0079 40.6623 42.0079 38.9949ZM42.0079 56.9886C42.0079 55.3314 40.6574 53.9811 39 53.9811C37.3426 53.9811 35.9921 55.3314 35.9921 56.9886C35.9921 58.6458 37.3426 59.9961 39 59.9961C40.6574 59.9961 42.0079 58.656 42.0079 56.9886ZM42.0079 74.9925C42.0079 73.3354 40.6574 71.9851 39 71.9851C37.3426 71.9851 35.9921 73.3354 35.9921 74.9925C35.9921 76.6497 37.3426 78 39 78C40.6574 78 42.0079 76.6497 42.0079 74.9925ZM24.0118 3.00747C24.0118 1.35029 22.6613 0 21.0039 0C19.3465 0 17.9961 1.35029 17.9961 3.00747C17.9961 4.66465 19.3465 6.01495 21.0039 6.01495C22.6613 6.01495 24.0118 4.66465 24.0118 3.00747ZM24.0118 21.0012C24.0118 19.344 22.6613 17.9937 21.0039 17.9937C19.3465 17.9937 17.9961 19.344 17.9961 21.0012C17.9961 22.6584 19.3465 24.0086 21.0039 24.0086C22.6613 24.0086 24.0118 22.6686 24.0118 21.0012ZM24.0118 38.9949C24.0118 37.3377 22.6613 35.9874 21.0039 35.9874C19.3465 35.9874 17.9961 37.3377 17.9961 38.9949C17.9961 40.6521 19.3465 42.0024 21.0039 42.0024C22.6613 42.0024 24.0118 40.6623 24.0118 38.9949ZM24.0118 56.9886C24.0118 55.3314 22.6613 53.9811 21.0039 53.9811C19.3465 53.9811 17.9961 55.3314 17.9961 56.9886C17.9961 58.6458 19.3465 59.9961 21.0039 59.9961C22.6613 60.0063 24.0118 58.656 24.0118 56.9886ZM24.0118 74.9925C24.0118 73.3354 22.6613 71.9851 21.0039 71.9851C19.3465 71.9851 17.9961 73.3354 17.9961 74.9925C17.9961 76.6497 19.3465 78 21.0039 78C22.6613 78 24.0118 76.6497 24.0118 74.9925ZM6.01575 3.00747C6.01575 1.35029 4.66527 0 3.00787 0C1.35047 0 0 1.35029 0 3.00747C0 4.66465 1.35047 6.01495 3.00787 6.01495C4.66527 6.01495 6.01575 4.66465 6.01575 3.00747ZM6.01575 21.0012C6.01575 19.344 4.66527 17.9937 3.00787 17.9937C1.35047 17.9937 0 19.344 0 21.0012C0 22.6584 1.35047 24.0086 3.00787 24.0086C4.66527 24.0086 6.01575 22.6686 6.01575 21.0012ZM6.01575 38.9949C6.01575 37.3377 4.66527 35.9874 3.00787 35.9874C1.35047 35.9874 0 37.3377 0 38.9949C0 40.6521 1.35047 42.0024 3.00787 42.0024C4.66527 42.0024 6.01575 40.6623 6.01575 38.9949ZM6.01575 56.9886C6.01575 55.3314 4.66527 53.9811 3.00787 53.9811C1.35047 53.9811 0 55.3314 0 56.9886C0 58.6458 1.35047 59.9961 3.00787 59.9961C4.66527 60.0063 6.01575 58.656 6.01575 56.9886ZM6.01575 74.9925C6.01575 73.3354 4.66527 71.9851 3.00787 71.9851C1.35047 71.9851 0 73.3354 0 74.9925C0 76.6497 1.35047 78 3.00787 78C4.66527 78 6.01575 76.6497 6.01575 74.9925Z" fill="black"/>
</svg>
