<svg width="81" height="15" viewBox="0 0 81 15" fill="none" xmlns="http://www.w3.org/2000/svg">
<path d="M81 2.43543V0L71.0252 0V2.43543L81 2.43543Z" fill="black"/>
<path d="M81 8.62245V6.18701L71.0252 6.18701V8.62245L81 8.62245Z" fill="black"/>
<path d="M81 14.8095V12.374L71.0252 12.374V14.8095L81 14.8095Z" fill="black"/>
<path d="M66.7942 2.43543V0L56.8194 0V2.43543L66.7942 2.43543Z" fill="black"/>
<path d="M66.7942 8.62245V6.18701L56.8194 6.18701V8.62245L66.7942 8.62245Z" fill="black"/>
<path d="M52.5928 8.62245V6.18701L42.618 6.18701V8.62245L52.5928 8.62245Z" fill="black"/>
<path d="M52.5928 14.8095V12.374L42.618 12.374V14.8095L52.5928 14.8095Z" fill="black"/>
<path d="M38.3867 2.43543V0L28.4119 0V2.43543L38.3867 2.43543Z" fill="black"/>
<path d="M38.3867 14.8095V12.374L28.4119 12.374V14.8095L38.3867 14.8095Z" fill="black"/>
<path d="M24.1809 2.43543V0L14.2061 0V2.43543L24.1809 2.43543Z" fill="black"/>
<path d="M24.1809 8.62245V6.18701L14.2061 6.18701V8.62245L24.1809 8.62245Z" fill="black"/>
<path d="M9.97485 2.43543V0L9.53674e-05 0V2.43543L9.97485 2.43543Z" fill="black"/>
<path d="M9.97485 8.62245V6.18701L9.53674e-05 6.18701V8.62245L9.97485 8.62245Z" fill="black"/>
<path d="M9.97485 14.8095V12.374L9.53674e-05 12.374V14.8095L9.97485 14.8095Z" fill="black"/>
</svg>
