<svg width="28" height="30" viewBox="0 0 28 30" fill="none" xmlns="http://www.w3.org/2000/svg">
<path d="M2 10.8798C2 6.5367 2 4.36518 3.31802 3.01596C4.63604 1.66675 6.75736 1.66675 11 1.66675H17C21.2426 1.66675 23.364 1.66675 24.682 3.01596C26 4.36518 26 6.5367 26 10.8798V21.3636C26 25.4837 26 27.5438 24.7336 28.1739C23.4671 28.804 21.8847 27.5313 18.7198 24.9857L17.7069 24.1711C15.9274 22.7397 15.0376 22.0241 14 22.0241C12.9624 22.0241 12.0726 22.7398 10.2931 24.1711L9.28019 24.9857C6.11532 27.5313 4.53288 28.804 3.26644 28.1739C2 27.5438 2 25.4837 2 21.3636V10.8798Z" stroke="black" stroke-width="2.5"/>
</svg>
